
<!-- Generator: visioncortex VTracer 0.6.4 -->
<svg version="1.1" xmlns="http://www.w3.org/2000/svg" viewBox="0 0 737 737" preserveAspectRatio="xMidYMid meet">
<path d="M0 0 C243.21 0 486.42 0 737 0 C737 243.21 737 486.42 737 737 C493.79 737 250.58 737 0 737 C0 493.79 0 250.58 0 0 Z " fill="#080808" transform="translate(0,0)"/>
<path d="M0 0 C1.97 -0.01 1.97 -0.01 3.98 -0.02 C7.561 -0.038 11.142 -0.043 14.723 -0.044 C16.968 -0.045 19.214 -0.05 21.459 -0.055 C29.315 -0.073 37.171 -0.082 45.028 -0.08 C52.313 -0.079 59.598 -0.1 66.883 -0.132 C73.168 -0.158 79.452 -0.168 85.737 -0.167 C89.477 -0.167 93.217 -0.172 96.957 -0.194 C100.482 -0.213 104.006 -0.213 107.531 -0.198 C109.414 -0.195 111.297 -0.212 113.18 -0.229 C124.954 -0.144 136.467 2.484 146.953 7.978 C147.947 8.49 147.947 8.49 148.962 9.011 C169.303 19.921 176.659 39.494 183.421 60.181 C183.961 61.813 184.502 63.445 185.044 65.077 C186.465 69.366 187.878 73.658 189.289 77.951 C191.503 84.685 193.73 91.414 195.957 98.143 C196.52 99.846 197.083 101.548 197.646 103.251 C201.808 115.848 206.054 128.414 210.359 140.962 C215.783 156.775 221.111 172.617 226.39 188.478 C226.767 189.609 227.143 190.741 227.531 191.906 C230.626 201.203 233.716 210.502 236.807 219.8 C246.193 248.042 255.635 276.261 265.287 304.413 C267.979 312.268 270.639 320.133 273.292 328.001 C273.734 329.311 274.176 330.621 274.618 331.931 C275.274 333.874 275.93 335.817 276.585 337.761 C284.141 360.158 291.748 382.536 299.581 404.838 C300.166 406.503 300.751 408.168 301.335 409.833 C301.616 410.633 301.897 411.432 302.186 412.256 C304.054 417.586 305.886 422.928 307.695 428.279 C313.764 446.213 320.172 463.982 326.917 481.674 C327.232 482.502 327.547 483.331 327.871 484.184 C328.464 485.744 329.06 487.302 329.659 488.859 C331.64 494.067 331.64 494.067 331.64 496.291 C314.602 496.408 297.564 496.496 280.526 496.55 C272.614 496.575 264.703 496.61 256.791 496.668 C249.892 496.718 242.993 496.75 236.093 496.761 C232.443 496.767 228.793 496.783 225.143 496.819 C221.059 496.86 216.977 496.86 212.893 496.858 C211.694 496.876 210.496 496.894 209.261 496.913 C199.869 496.855 192.794 494.517 185.894 488.009 C181.008 481.857 178.996 474.148 176.578 466.791 C176.004 465.094 175.428 463.398 174.85 461.702 C173.538 457.841 172.236 453.976 170.939 450.11 C167.054 438.553 163.064 427.031 159.094 415.503 C157.338 410.403 155.588 405.301 153.841 400.199 C153.138 398.148 152.435 396.097 151.732 394.046 C151.285 392.743 150.839 391.44 150.394 390.136 C149.781 388.343 149.166 386.55 148.551 384.758 C148.205 383.746 147.858 382.734 147.501 381.692 C146.704 379.32 146.704 379.32 145.64 377.291 C86.57 377.291 27.5 377.291 -33.36 377.291 C-34.845 381.746 -34.845 381.746 -36.36 386.291 C-36.918 387.945 -37.477 389.599 -38.039 391.251 C-38.334 392.121 -38.63 392.99 -38.934 393.886 C-39.402 395.262 -39.402 395.262 -39.879 396.666 C-40.215 397.652 -40.55 398.639 -40.896 399.656 C-42.746 405.1 -44.599 410.543 -46.453 415.986 C-47.225 418.254 -47.998 420.522 -48.77 422.791 C-49.155 423.922 -49.541 425.054 -49.938 426.219 C-52.118 432.627 -54.288 439.038 -56.444 445.454 C-57.7 449.19 -58.961 452.925 -60.223 456.66 C-60.808 458.394 -61.39 460.13 -61.969 461.867 C-70.232 486.623 -70.232 486.623 -76.86 491.291 C-77.592 491.827 -78.324 492.363 -79.079 492.916 C-83.415 495.529 -86.945 496.541 -92.01 496.531 C-93.136 496.534 -94.262 496.537 -95.422 496.539 C-96.648 496.532 -97.874 496.525 -99.136 496.518 C-101.083 496.518 -101.083 496.518 -103.07 496.518 C-106.621 496.519 -110.172 496.507 -113.723 496.493 C-117.438 496.481 -121.152 496.48 -124.866 496.477 C-131.896 496.471 -138.926 496.455 -145.956 496.435 C-153.961 496.412 -161.965 496.401 -169.97 496.391 C-186.433 496.37 -202.897 496.335 -219.36 496.291 C-217.446 489.017 -215.312 481.861 -212.921 474.731 C-212.59 473.737 -212.26 472.743 -211.919 471.719 C-210.832 468.454 -209.74 465.191 -208.649 461.927 C-207.877 459.613 -207.105 457.298 -206.334 454.983 C-204.713 450.123 -203.091 445.264 -201.467 440.406 C-199.426 434.299 -197.388 428.19 -195.352 422.082 C-187.862 399.613 -180.348 377.153 -172.653 354.753 C-167.358 339.336 -162.194 323.877 -157.059 308.406 C-151.95 293.018 -146.821 277.637 -141.698 262.254 C-139.842 256.68 -137.987 251.107 -136.132 245.532 C-128.939 223.911 -121.742 202.292 -114.321 180.747 C-107.033 159.587 -100.002 138.342 -93.014 117.082 C-90.611 109.771 -88.201 102.462 -85.786 95.155 C-84.248 90.499 -82.715 85.842 -81.192 81.182 C-79.678 76.553 -78.152 71.928 -76.618 67.305 C-76.047 65.579 -75.481 63.851 -74.919 62.121 C-67.535 39.414 -56.193 18.983 -34.36 7.291 C-22.851 1.743 -12.674 -0.009 0 0 Z " fill="#FEFEFE" transform="translate(315.35986328125,118.70947265625)"/>
<path d="M0 0 C0.84 2.198 1.602 4.426 2.328 6.664 C2.553 7.351 2.778 8.037 3.01 8.745 C3.502 10.244 3.99 11.745 4.477 13.245 C5.811 17.354 7.17 21.454 8.527 25.555 C8.811 26.414 9.095 27.272 9.388 28.157 C12.446 37.384 15.606 46.574 18.812 55.75 C19.097 56.566 19.382 57.382 19.676 58.223 C25.005 73.45 30.634 88.561 36.378 103.636 C36.688 104.452 36.998 105.269 37.318 106.11 C37.899 107.64 38.483 109.168 39.07 110.696 C41 115.776 41 115.776 41 118 C23.962 118.117 6.924 118.205 -10.114 118.259 C-18.026 118.285 -25.937 118.32 -33.849 118.377 C-40.748 118.427 -47.647 118.459 -54.547 118.47 C-58.197 118.477 -61.847 118.492 -65.497 118.529 C-69.581 118.569 -73.664 118.57 -77.748 118.568 C-79.545 118.595 -79.545 118.595 -81.379 118.622 C-90.771 118.565 -97.846 116.226 -104.746 109.719 C-109.632 103.567 -111.645 95.857 -114.062 88.5 C-114.636 86.803 -115.211 85.107 -115.788 83.412 C-117.099 79.55 -118.4 75.686 -119.697 71.819 C-122.104 64.664 -124.569 57.529 -127.039 50.395 C-128.306 46.735 -129.572 43.073 -130.838 39.412 C-131.214 38.323 -131.214 38.323 -131.598 37.213 C-132.104 35.748 -132.61 34.284 -133.116 32.82 C-133.623 31.353 -134.13 29.887 -134.637 28.42 C-136.096 24.2 -137.552 19.978 -139.003 15.755 C-139.452 14.452 -139.901 13.149 -140.352 11.846 C-140.972 10.054 -141.587 8.261 -142.203 6.467 C-142.551 5.455 -142.9 4.444 -143.259 3.401 C-144 1 -144 1 -144 -1 C-125.52 -1.177 -107.04 -1.343 -88.56 -1.495 C-79.98 -1.566 -71.4 -1.64 -62.82 -1.724 C-55.344 -1.796 -47.867 -1.862 -40.391 -1.919 C-36.43 -1.95 -32.47 -1.984 -28.509 -2.026 C-24.785 -2.066 -21.06 -2.097 -17.335 -2.12 C-15.965 -2.13 -14.596 -2.144 -13.226 -2.161 C-11.361 -2.184 -9.496 -2.194 -7.631 -2.203 C-6.063 -2.216 -6.063 -2.216 -4.464 -2.23 C-2 -2 -2 -2 0 0 Z " fill="#7768E4" transform="translate(606,497)"/>
<path d="M0 0 C4.614 4.508 6.067 10.252 8.02 16.227 C8.395 17.346 8.77 18.465 9.157 19.619 C9.964 22.029 10.767 24.44 11.565 26.853 C12.824 30.659 14.094 34.461 15.369 38.262 C15.582 38.897 15.795 39.532 16.015 40.186 C16.446 41.472 16.878 42.758 17.309 44.044 C17.959 45.981 18.607 47.92 19.255 49.858 C23.075 61.272 27.014 72.643 31 84 C31.608 85.736 32.216 87.473 32.824 89.209 C33.703 91.72 34.581 94.231 35.461 96.742 C38.224 104.634 40.974 112.531 43.702 120.435 C44.187 121.837 44.673 123.239 45.159 124.64 C45.816 126.531 46.469 128.424 47.121 130.316 C47.486 131.373 47.852 132.429 48.228 133.518 C49 136 49 136 49 138 C11.38 138 -26.24 138 -65 138 C-62.75 127.875 -62.75 127.875 -61.567 124.328 C-61.3 123.518 -61.032 122.709 -60.757 121.875 C-60.47 121.021 -60.182 120.167 -59.886 119.287 C-59.425 117.897 -59.425 117.897 -58.954 116.479 C-57.941 113.432 -56.922 110.388 -55.902 107.344 C-55.187 105.197 -54.471 103.05 -53.756 100.903 C-52.255 96.4 -50.751 91.898 -49.244 87.397 C-47.339 81.703 -45.44 76.008 -43.544 70.311 C-42.064 65.869 -40.581 61.428 -39.098 56.988 C-38.399 54.893 -37.7 52.798 -37.002 50.703 C-33.179 39.232 -29.276 27.789 -25.248 16.389 C-24.884 15.338 -24.519 14.288 -24.143 13.206 C-19.506 0.21 -19.506 0.21 -15.188 -1.875 C-9.696 -2.189 -5.08 -2.371 0 0 Z " fill="#090909" transform="translate(378,245)"/>
<path d="M0 0 C0.99 0 1.98 0 3 0 C3 0.66 3 1.32 3 2 C2.34 2 1.68 2 1 2 C1.124 3.207 1.124 3.207 1.25 4.438 C0.914 9.223 -0.884 12.747 -3 17 C-3.572 18.166 -3.572 18.166 -4.156 19.355 C-5.092 21.243 -6.044 23.122 -7 25 C-8 23 -8 23 -7.379 20.662 C-6.869 19.232 -6.869 19.232 -6.348 17.773 C-5.983 16.742 -5.619 15.711 -5.244 14.648 C-4.659 13.028 -4.659 13.028 -4.062 11.375 C-3.483 9.743 -3.483 9.743 -2.893 8.078 C-1.935 5.383 -0.971 2.69 0 0 Z M-9 25 C-9 28 -9 28 -9 28 Z M-12 29 C-11.67 29.66 -11.34 30.32 -11 31 C-11.66 30.67 -12.32 30.34 -13 30 C-12.67 29.67 -12.34 29.34 -12 29 Z M-15 31 C-14.34 31.33 -13.68 31.66 -13 32 C-13.99 32 -14.98 32 -16 32 C-15.67 31.67 -15.34 31.34 -15 31 Z " fill="#181818" transform="translate(253,578)"/>
<path d="M0 0 C0.66 0 1.32 0 2 0 C1.524 2.292 1.044 4.584 0.562 6.875 C0.162 8.789 0.162 8.789 -0.246 10.742 C-1 14 -1 14 -2 16 C-2.66 16 -3.32 16 -4 16 C-3.67 16.99 -3.34 17.98 -3 19 C-3.99 19.33 -4.98 19.66 -6 20 C-4.221 13.249 -2.296 6.594 0 0 Z " fill="#131313" transform="translate(279,502)"/>
<path d="M0 0 C1.094 3.741 0.7 5.874 -0.438 9.625 C-1.599 13.257 -1.599 13.257 -2 17 C-2.66 17 -3.32 17 -4 17 C-5.485 21.455 -5.485 21.455 -7 26 C-8 24 -8 24 -7.379 21.57 C-7.039 20.575 -6.698 19.58 -6.348 18.555 C-5.983 17.478 -5.619 16.402 -5.244 15.293 C-4.854 14.165 -4.464 13.037 -4.062 11.875 C-3.676 10.739 -3.29 9.604 -2.893 8.434 C-1.935 5.62 -0.971 2.809 0 0 Z " fill="#191919" transform="translate(337,308)"/>
<path d="M0 0 C2.022 3.033 2.993 5.613 4.125 9.062 C4.478 10.126 4.831 11.189 5.195 12.285 C6 15 6 15 6 17 C5.34 17 4.68 17 4 17 C3.494 15.564 2.996 14.126 2.5 12.688 C2.222 11.887 1.943 11.086 1.656 10.262 C1 8 1 8 1 5 C0.34 5 -0.32 5 -1 5 C-0.67 3.35 -0.34 1.7 0 0 Z " fill="#191819" transform="translate(404,317)"/>
<path d="M0 0 C1.137 3.404 0.84 5.775 0.062 9.25 C-0.132 10.142 -0.327 11.034 -0.527 11.953 C-0.683 12.629 -0.839 13.304 -1 14 C-1.66 14 -2.32 14 -3 14 C-3 14.99 -3 15.98 -3 17 C-3.66 17 -4.32 17 -5 17 C-1.925 5.478 -1.925 5.478 0 0 Z " fill="#1B1A1A" transform="translate(343,290)"/>
<path d="M0 0 C0.66 0 1.32 0 2 0 C2.99 3.3 3.98 6.6 5 10 C4.34 10 3.68 10 3 10 C3 9.01 3 8.02 3 7 C2.34 7 1.68 7 1 7 C0.67 4.69 0.34 2.38 0 0 Z " fill="#0D0B19" transform="translate(479,551)"/>
<path d="M0 0 C2.062 1.688 2.062 1.688 4 4 C3.75 6.75 3.75 6.75 3 9 C0.875 5.812 0.498 3.735 0 0 Z " fill="#0B0B0A" transform="translate(539,299)"/>
</svg>